<svg id="visual" viewBox="0 0 1840 833" width="1840" height="833" xmlns="http://www.w3.org/2000/svg" xmlns:xlink="http://www.w3.org/1999/xlink" version="1.1"><rect x="0" y="0" width="1840" height="833" fill="#ece2f8"></rect><path d="M0 548L15.3 542.3C30.7 536.7 61.3 525.3 92 522.7C122.7 520 153.3 526 184 513.2C214.7 500.3 245.3 468.7 276 485.8C306.7 503 337.3 569 368 594.3C398.7 619.7 429.3 604.3 460 602.8C490.7 601.3 521.3 613.7 552 602C582.7 590.3 613.3 554.7 644 545.8C674.7 537 705.3 555 736 566.2C766.7 577.3 797.3 581.7 828 588C858.7 594.3 889.3 602.7 920 576C950.7 549.3 981.3 487.7 1012 487.3C1042.7 487 1073.3 548 1104 573.8C1134.7 599.7 1165.3 590.3 1196 575.8C1226.7 561.3 1257.3 541.7 1288 546.7C1318.7 551.7 1349.3 581.3 1380 593.7C1410.7 606 1441.3 601 1472 590.5C1502.7 580 1533.3 564 1564 554.3C1594.7 544.7 1625.3 541.3 1656 534.5C1686.7 527.7 1717.3 517.3 1748 512.7C1778.7 508 1809.3 509 1824.7 509.5L1840 510L1840 834L1824.7 834C1809.3 834 1778.7 834 1748 834C1717.3 834 1686.7 834 1656 834C1625.3 834 1594.7 834 1564 834C1533.3 834 1502.7 834 1472 834C1441.3 834 1410.7 834 1380 834C1349.3 834 1318.7 834 1288 834C1257.3 834 1226.7 834 1196 834C1165.3 834 1134.7 834 1104 834C1073.3 834 1042.7 834 1012 834C981.3 834 950.7 834 920 834C889.3 834 858.7 834 828 834C797.3 834 766.7 834 736 834C705.3 834 674.7 834 644 834C613.3 834 582.7 834 552 834C521.3 834 490.7 834 460 834C429.3 834 398.7 834 368 834C337.3 834 306.7 834 276 834C245.3 834 214.7 834 184 834C153.3 834 122.7 834 92 834C61.3 834 30.7 834 15.3 834L0 834Z" fill="#8a2be2" stroke-linecap="round" stroke-linejoin="miter"></path></svg>